<?xml version="1.0" encoding="utf-8"?>
<!-- Generator: Adobe Illustrator 19.2.0, SVG Export Plug-In . SVG Version: 6.00 Build 0)  -->
<svg version="1.1" id="Layer_1" xmlns="http://www.w3.org/2000/svg" xmlns:xlink="http://www.w3.org/1999/xlink" x="0px" y="0px"
	 viewBox="0 0 18 18" enable-background="new 0 0 18 18" xml:space="preserve">
<g id="Layer_10">
	<path d="M9,0C4,0,0,4,0,9s4,9,9,9s9-4,9-9S14,0,9,0z M11.8,11.7c-0.1,0.3-0.3,0.6-0.6,0.9c-0.2,0.2-0.6,0.4-0.9,0.6
		c-0.1,0-0.3,0.1-0.4,0.1v1.3c0,0,0,0.4-0.4,0.4s-0.9,0-0.9,0s-0.5,0-0.5-0.4s0-1.2,0-1.3c-0.1,0-0.1,0-0.2-0.1
		c-0.4-0.1-0.7-0.3-1-0.5s-0.5-0.6-0.7-0.9C6.1,11.3,6,10.9,6,10.4h1.5c0,0.3,0,0.5,0.1,0.7s0.2,0.4,0.3,0.5
		c0.1,0.1,0.3,0.2,0.5,0.3S8.8,12,9,12c0.1,0,0.3,0,0.4,0c0.2,0,0.3-0.1,0.4-0.2c0.1-0.1,0.3-0.2,0.3-0.3c0.1-0.1,0.1-0.3,0.1-0.5
		s-0.1-0.4-0.2-0.6c-0.1-0.1-0.3-0.3-0.5-0.4c0.1-0.1-0.1-0.2-0.4-0.3C8.9,9.6,8.6,9.6,8.4,9.5C8.1,9.4,7.9,9.3,7.6,9.2
		S7.1,8.9,6.9,8.7C6.7,8.6,6.6,8.3,6.5,8.1c-0.1-0.3-0.2-0.6-0.2-1S6.4,6.3,6.5,6c0.2-0.3,0.4-0.6,0.6-0.8C7.4,4.9,7.6,4.8,8,4.7
		h0.1V3.3c0,0,0-0.4,0.5-0.4s0.9,0,0.9,0s0.4,0,0.4,0.4s0,1.2,0,1.3c0,0,0,0,0.1,0c0.3,0.1,0.6,0.3,0.9,0.5c0.3,0.2,0.5,0.5,0.6,0.8
		c0.2,0.3,0.2,0.8,0.2,1.2h-1.5c0-0.3-0.1-0.5-0.1-0.6c-0.1,0-0.2-0.2-0.3-0.3C9.7,6.1,9.5,6.1,9.4,6C9.2,6,9,6,8.8,6
		C8.7,6,8.6,6,8.5,6C8.3,6,8.2,6.1,8.1,6.2C8,6.3,7.9,6.4,7.9,6.5C7.8,6.6,7.8,6.7,7.8,6.9c0,0.2,0,0.3,0.1,0.4
		c0,0.1,0.1,0.2,0.3,0.3s0.4,0.2,0.6,0.3C9.1,8,9.4,8.1,9.9,8.2c0.1,0,0.3,0.1,0.5,0.2c0.2,0.1,0.5,0.2,0.7,0.4s0.4,0.4,0.6,0.7
		c0.2,0.3,0.3,0.7,0.3,1.2C12,11,11.9,11.4,11.8,11.7z"/>
</g>
</svg>
