<?xml version="1.0" encoding="utf-8"?>
<!-- Generator: Adobe Illustrator 19.2.0, SVG Export Plug-In . SVG Version: 6.00 Build 0)  -->
<svg version="1.1" id="Layer_1" xmlns="http://www.w3.org/2000/svg" xmlns:xlink="http://www.w3.org/1999/xlink" x="0px" y="0px"
	 viewBox="0 0 18 18" enable-background="new 0 0 18 18" xml:space="preserve">
<g>
	<path d="M9.4,13.5H8.6L0,9v8.1h18V9L9.4,13.5z M3.4,9l7.2-6.8L9.7,1.4C9.3,0.8,8.8,0.9,8.8,0.9c-0.4,0-0.9,0.4-0.9,0.4L2.5,8.6
		C2.9,9.1,3.4,9,3.4,9z M9,12.8l8.5-5.4c0,0,0.7-1,0-1.8S13,2,13,2s-0.3-0.1-0.9,0.5S4,9.7,4,9.7L9,12.8z"/>
</g>
</svg>
