<?xml version="1.0" encoding="utf-8"?>
<!-- Generator: Adobe Illustrator 19.2.0, SVG Export Plug-In . SVG Version: 6.00 Build 0)  -->
<svg version="1.1" id="Layer_1" xmlns="http://www.w3.org/2000/svg" xmlns:xlink="http://www.w3.org/1999/xlink" x="0px" y="0px"
	 viewBox="0 0 18 18" enable-background="new 0 0 18 18" xml:space="preserve">
<g>
	<path d="M0,5.1V18h18V5.1H0z M1.8,6.6h2.1v2.1H1.8V6.6z M1.8,10.6h2.1v2.1H1.8V10.6z M1.8,14.5h2.1v2.1H1.8V14.5z M5.8,6.6h2.1v2.1
		H5.8V6.6z M5.8,10.6h2.1v2.1H5.8V10.6z M5.8,14.5h2.1v2.1H5.8V14.5z M9.9,6.6H12v2.1H9.9V6.6z M9.9,10.6H12v2.1H9.9V10.6z
		 M9.9,14.5H12v2.1H9.9V14.5z M13.8,6.6h2.1v2.1h-2.1V6.6z M13.8,10.6h2.1v2.1h-2.1V10.6z M13.8,14.5h2.1v2.1h-2.1V14.5z M0,1.2v2.5
		h18V1.2h-1.4V0h-2.3v1.2H3.7V0H1.4v1.2H0z"/>
</g>
</svg>
