<?xml version="1.0" encoding="utf-8"?><svg xmlns="http://www.w3.org/2000/svg" xmlns:xlink="http://www.w3.org/1999/xlink"><symbol viewBox="0 0 18 18" aria-labelledby="aaaccounts-title" id="accounts"><title id="aaaccounts-title">Accounts</title><path d="M9 0C4 0 0 4 0 9s4 9 9 9 9-4 9-9-4-9-9-9zm2.8 11.7c-.1.3-.3.6-.6.9-.2.2-.6.4-.9.6-.1 0-.3.1-.4.1v1.3s0 .4-.4.4h-.9s-.5 0-.5-.4v-1.3c-.1 0-.1 0-.2-.1-.4-.1-.7-.3-1-.5s-.5-.6-.7-.9c-.1-.5-.2-.9-.2-1.4h1.5c0 .3 0 .5.1.7s.2.4.3.5c.1.1.3.2.5.3s.4.1.6.1h.4c.2 0 .3-.1.4-.2.1-.1.3-.2.3-.3.1-.1.1-.3.1-.5s-.1-.4-.2-.6c-.1-.1-.3-.3-.5-.4.1-.1-.1-.2-.4-.3-.2-.1-.5-.1-.7-.2-.3-.1-.5-.2-.8-.3s-.5-.3-.7-.5c-.2-.1-.3-.4-.4-.6-.1-.3-.2-.6-.2-1s.1-.8.2-1.1c.2-.3.4-.6.6-.8.3-.3.5-.4.9-.5h.1V3.3s0-.4.5-.4h.9s.4 0 .4.4v1.3h.1c.3.1.6.3.9.5.3.2.5.5.6.8.2.3.2.8.2 1.2h-1.5c0-.3-.1-.5-.1-.6-.1 0-.2-.2-.3-.3-.1-.1-.3-.1-.4-.2H8.5c-.2 0-.3.1-.4.2-.1.1-.2.2-.2.3-.1.1-.1.2-.1.4s0 .3.1.4c0 .1.1.2.3.3l.6.3c.3.1.6.2 1.1.3.1 0 .3.1.5.2s.5.2.7.4.4.4.6.7c.2.3.3.7.3 1.2 0 .3-.1.7-.2 1z"/></symbol><symbol viewBox="0 0 18 18" aria-labelledby="abadd-title" id="add"><title id="abadd-title">Add</title><path d="M7 0v7H0v4h7v7h4v-7h7V7h-7V0z"/></symbol><symbol viewBox="0 0 18 18" aria-labelledby="acalert-error-title" id="alert-error"><title id="acalert-error-title">Danger</title><path fill="#c90202" d="M17.6 14.7L10.7 1.4C10.2.5 9.6 0 9 0S7.8.5 7.3 1.4L.4 14.7c-.5 1-.5 1.8-.2 2.4s1.1.9 2.1.9h13.4c1 0 1.7-.3 2.1-.9.3-.6.3-1.5-.2-2.4zM9 16c-.6 0-1-.4-1-1s.4-1 1-1 1 .4 1 1-.4 1-1 1zm.7-4.3H8.3L8 5h2l-.3 6.7z"/></symbol><symbol viewBox="0 0 18 18" aria-labelledby="adalert-fill-title" id="alert-fill"><title id="adalert-fill-title">Warning</title><path d="M17.6 14.7L10.7 1.4C10.2.5 9.6 0 9 0S7.8.5 7.3 1.4L.4 14.7c-.5 1-.5 1.8-.2 2.4s1.1.9 2.1.9h13.4c1 0 1.7-.3 2.1-.9.3-.6.3-1.5-.2-2.4zM9 16c-.6 0-1-.4-1-1s.4-1 1-1 1 .4 1 1-.4 1-1 1zm.7-4.3H8.3L8 5h2l-.3 6.7z"/></symbol><symbol viewBox="0 0 18 18" aria-labelledby="aealert-outline-title" id="alert-outline"><title id="aealert-outline-title">Warning</title><path d="M8.3 11.7h1.4L10 5H8l.3 6.7zM9 14c-.6 0-1 .4-1 1s.4 1 1 1 1-.4 1-1-.4-1-1-1zm8.6.7L10.7 1.4C10.2.5 9.6 0 9 0S7.8.5 7.3 1.4L.4 14.7c-.5.9-.5 1.8-.2 2.4.4.6 1.1.9 2.1.9h13.3c1 0 1.8-.3 2.1-.9.4-.6.4-1.5-.1-2.4zm-1.3 1.5c-.3.5-.9.8-1.8.8h-11c-.8 0-1.5-.3-1.8-.8-.3-.5-.2-1.2.2-2l5.7-11C8 2.4 8.5 2 9 2s1 .4 1.4 1.1l5.7 11c.4.9.5 1.6.2 2.1z"/></symbol><symbol viewBox="0 0 18 18" aria-labelledby="afalert-warning-title" id="alert-warning"><title id="afalert-warning-title">Warning</title><path fill="#FEC82A" d="M2.3 18c-1 0-1.8-.3-2.1-.9-.4-.6-.3-1.4.2-2.4L7.3 1.4C7.8.5 8.4 0 9 0s1.2.5 1.7 1.4l6.9 13.3c.5.9.5 1.8.2 2.4-.4.6-1.1.9-2.1.9H2.3z"/><path fill="#333" d="M8.3 11.7L8 5h2l-.3 6.7z"/><circle fill="#333" cx="9" cy="15" r="1"/></symbol><symbol viewBox="0 0 18 18" aria-labelledby="agback-title" id="back"><title id="agback-title">Back</title><path d="M3.5 9l9.6 9 1.4-1.2L6 9l8.5-7.8L13.1 0"/></symbol><symbol viewBox="0 0 18 18" aria-labelledby="ahbill-pay-title" id="bill-pay"><title id="ahbill-pay-title">Bill Pay</title><path d="M9.4 13.5h-.8L0 9v8.1h18V9l-8.6 4.5zM3.4 9l7.2-6.8-.9-.8C9.3.8 8.8.9 8.8.9c-.4 0-.9.4-.9.4L2.5 8.6c.4.5.9.4.9.4zM9 12.8l8.5-5.4s.7-1 0-1.8S13 2 13 2s-.3-.1-.9.5S4 9.7 4 9.7l5 3.1z"/></symbol><symbol viewBox="0 0 18 18" aria-labelledby="aicalendar-title" id="calendar"><title id="aicalendar-title">Calendar</title><path d="M0 5.1V18h18V5.1H0zm1.8 1.5h2.1v2.1H1.8V6.6zm0 4h2.1v2.1H1.8v-2.1zm0 3.9h2.1v2.1H1.8v-2.1zm4-7.9h2.1v2.1H5.8V6.6zm0 4h2.1v2.1H5.8v-2.1zm0 3.9h2.1v2.1H5.8v-2.1zm4.1-7.9H12v2.1H9.9V6.6zm0 4H12v2.1H9.9v-2.1zm0 3.9H12v2.1H9.9v-2.1zm3.9-7.9h2.1v2.1h-2.1V6.6zm0 4h2.1v2.1h-2.1v-2.1zm0 3.9h2.1v2.1h-2.1v-2.1zM0 1.2v2.5h18V1.2h-1.4V0h-2.3v1.2H3.7V0H1.4v1.2H0z"/></symbol><symbol viewBox="0 0 18 18" id="call"><path d="M7.9 10.3c1.1 1.3 2.7 3.3 3.1 3.4.3.2.2.2.4.1.3-.2.5-.2.6-.7 0-.2 1.3-1.4 1.3-1.4s.7-.5 1-.2 2.9 2.7 2.9 2.7.7.6.2 1.2c-.5.7-1.5 2-2.2 2.3-.7.3-2.8.6-4.1-.2-1.1-.6-4.6-3.5-6.2-5.6C3.4 10 1.4 7.3.8 6.2.1 4.8.5 2.8.8 2.1S2.4.5 3.2.1s1.2.2 1.2.2 2.2 2.8 2.4 3.1-.3 1-.3 1-1.2 1.1-1.3 1.2c-.5.2-.5.2-.7.5-.1.2-.1.1.1.5.1.4 2.2 2.4 3.3 3.7z"/></symbol><symbol viewBox="0 0 18 18" aria-labelledby="akcheck-image-title" id="check-image"><title id="akcheck-image-title">Check image</title><path d="M0 3.3v11.4h18V3.3H0zm16.8 9H9v-1.2h7.8v1.2zm0-2.7H1.2V8.4h15.6v1.2zm0-2.7H1.2V5.7h15.6v1.2z"/></symbol><symbol viewBox="0 0 18 18" id="checkmark"><path d="M3 7.3l4.2 3.8L15.1 0s1.7-.1 2.4.7c.7.9.5 2.8.5 2.8L7.3 18 0 10.8S-.2 8.9.6 8 3 7.3 3 7.3z"/></symbol><symbol viewBox="0 0 18 18" aria-labelledby="amclose-title" id="close"><title id="amclose-title">Close</title><path d="M18 2.5L15.5 0 9 6.5 2.5 0 0 2.5 6.5 9 0 15.5 2.5 18 9 11.5l6.5 6.5 2.5-2.5L11.5 9z"/></symbol><symbol viewBox="0 0 18 18" aria-labelledby="ancomputer-title" id="computer"><title id="ancomputer-title">Computer</title><path d="M2 .1v9.7h14V.1H2zm-.3 11.4L0 17.9h18l-1.7-6.4H1.7z"/></symbol><symbol viewBox="0 0 18 18" aria-labelledby="aodelete-title" id="delete"><title id="aodelete-title">Delete</title><path d="M0 9c0 5 4 9 9 9s9-4 9-9-4-9-9-9-9 4-9 9zm6.7-4.2L9 7.1l2.3-2.3c.5-.5 1.3-.5 1.8.1.5.5.6 1.4.1 1.8L10.9 9l2.3 2.3c.5.5.5 1.3-.1 1.8-.5.5-1.4.6-1.8.1L9 10.9l-2.3 2.3c-.5.5-1.3.4-1.8-.1s-.6-1.4-.1-1.8L7.1 9 4.8 6.7c-.5-.5-.5-1.3.1-1.8.5-.6 1.3-.6 1.8-.1z"/></symbol><symbol viewBox="0 0 18 18" aria-labelledby="apedit-title" id="edit"><title id="apedit-title">Edit</title><path d="M17.6 4.1l-1.8 1.8-3.7-3.7L13.9.4a1 1 0 0 1 1.39 0l2.31 2.31a.94.94 0 0 1 .28.69.94.94 0 0 1-.28.7zM.13 14.18L11 3.27 14.73 7 3.82 17.87H.13v-3.7z"/></symbol><symbol viewBox="0 0 18 18" aria-labelledby="aqemail-title" id="email"><title id="aqemail-title">Email</title><path d="M1 2.9l8 6.7 8-6.7H1zm17 1l-9 8.4L0 4v10.5l3.7-4s.4-.3.8 0 .2.8.2.8L1.2 15h15.6l-3.5-3.7s-.2-.4.2-.8c.3-.3.8 0 .8 0l3.7 4V3.9z"/></symbol><symbol viewBox="0 0 18 18" aria-labelledby="arforward-title" id="forward"><title id="arforward-title">Forward</title><path d="M4.9 0L3.5 1.2 12 9l-8.5 7.8L4.9 18l9.6-9"/></symbol><symbol viewBox="0 0 18 18" aria-labelledby="ashelp-title" id="help"><title id="ashelp-title">Help</title><path d="M11.7.4C7-1.1 1.9 1.5.4 6.3c-1.5 4.7 1.1 9.8 5.9 11.3 4.7 1.5 9.8-1.1 11.3-5.9 1.5-4.8-1.1-9.8-5.9-11.3zm-1.4 14.9H8v-2.4h2.3v2.4zm2.9-7.9c-.1.4-.3.7-.5.9-.2.3-.4.5-.7.6-.3.1-.5.4-.8.6-.3.2-.4.4-.6.6-.2.2-.3.5-.3.9v.6H8v-.8c0-.5.1-.9.3-1.2.2-.3.3-.6.5-.8l.6-.6c.2-.2.4-.3.6-.5.2-.2.3-.4.5-.6.1-.2.2-.5.2-.8 0-.5-.1-.9-.4-1.2-.3-.3-.6-.4-1.1-.4-.3 0-.6.1-.8.2-.2.1-.4.3-.5.5-.1.2-.2.4-.3.7-.1.3-.1.6-.1.9H5c0-.6.1-1.2.3-1.7.2-.5.5-1 .8-1.3.4-.4.8-.7 1.3-.9s1.1-.3 1.7-.3c.8 0 1.5.1 2 .3.5.2 1 .5 1.3.8.3.3.6.7.7 1.1.1.4.2.7.2 1.1.1.5 0 1-.1 1.3z"/></symbol><symbol viewBox="0 0 18 18" aria-labelledby="athelp-outline-title" id="help-outline"><title id="athelp-outline-title">Help</title><path d="M9.8 14.6H8.3v-2h1.5v2zM6.1 6.1c.1-.4.3-.8.6-1.1.3-.3.6-.5 1-.7.4-.2.8-.2 1.3-.2.6 0 1.1.1 1.5.3.4.2.7.4 1 .7.3.3.4.5.5.8.1.3.2.6.2.8 0 .4-.1.8-.2 1.1s-.2.5-.4.7l-.5.5c-.2.1-.4.3-.5.4-.2.1-.3.3-.5.5-.1.2-.2.4-.3.7v.5H8.2v-.6c0-.4.1-.7.2-1 .1-.3.2-.5.3-.7l.5-.5c.2-.1.3-.3.5-.4.1-.1.2-.3.3-.4s.1-.4.1-.6c0-.4-.1-.7-.3-.9-.1-.3-.4-.4-.7-.4-.2 0-.4 0-.6.1l-.5.5c-.1.1-.1.3-.2.5 0 .2-.1.2-.1.4H5.9c0-.5 0-.6.2-1z"/><path d="M9 0C4 0 0 4 0 9s4 9 9 9 9-4 9-9-4-9-9-9zm0 17.1C4.5 17.1.9 13.5.9 9S4.5.9 9 .9s8.1 3.6 8.1 8.1-3.6 8.1-8.1 8.1z"/></symbol><symbol viewBox="0 0 18 18" aria-labelledby="auhide-title" id="hide"><title id="auhide-title">Hide</title><path d="M0 .4v3.2h18V.4H0zm6.5 10.8v6.4h5.2v-6.4H17L9.1 5.4l-7.8 5.8h5.2z"/></symbol><symbol viewBox="0 0 18 18" aria-labelledby="avinfo-title" id="info"><title id="avinfo-title">Information</title><path d="M0 9c0 4.9 4.1 9 9 9s9-4.1 9-9-4.1-9-9-9-9 4.1-9 9zm6.1 3.6h1.8V9.1h-.8c-.3 0-.7-.4-.7-.6v-.7c0-.3.4-.6.6-.6h3.6v5.4h1.8v1.9H6.1v-1.9zm1.6-8.5c0-.8.7-1.4 1.5-1.4.7 0 1.4.6 1.4 1.4S10 5.4 9.3 5.4s-1.6-.6-1.6-1.3z"/></symbol><symbol viewBox="0 0 18 18" aria-labelledby="awnotifications-title" id="notifications"><title id="awnotifications-title">Notifications</title><path d="M9 0c-.3 0-1.2.1-1.2 1.5h2.4C10.2.1 9.3 0 9 0zM15.3 12.1c-1.2-1-1.7-3.3-1.8-6.3 0-3.1-2.6-3.7-3.3-3.7H7.8c-.7 0-3.3.5-3.3 3.7-.1 3-.6 5.3-1.8 6.3s-2 1.3-2 2.1 1.1 1.7 3.3 1.7h10c2.2 0 3.3-.8 3.3-1.7 0-.8-.7-1.1-2-2.1zM9 16.5H7.2S7.2 18 9 18s1.8-1.5 1.8-1.5H9z"/></symbol><symbol viewBox="0 0 18 18" aria-labelledby="axpage-loader-title" id="page-loader"><title id="axpage-loader-title">Page is loading</title><g fill="none" stroke="#bbb" stroke-miterlimit="10" stroke-width="1.75"><circle cx="9" cy="9" r="7.9" opacity=".5"/><path d="M1.1 9A7.9 7.9 0 0 1 9 1.1" stroke-linecap="square"/></g></symbol><symbol viewBox="0 0 18 18" aria-labelledby="aypay-people-title" id="pay-people"><title id="aypay-people-title">Pay People</title><path d="M16.2 18H1.8c-1 0-1.8-.8-1.8-1.8V1.8C0 .8.8 0 1.8 0h14.4c1 0 1.8.8 1.8 1.8v14.4c0 1-.8 1.8-1.8 1.8zM9 2.2c-2.7 0-5 2.2-5 4.9v8.2c0 .4.3.7.7.7H6c.3 0 .6-.3.6-.6v-3.9c.7.4 1.6.7 2.5.7 2.7 0 4.9-2.2 4.9-4.9s-2.3-5.1-5-5.1zM9 9c-1 0-1.8-.8-1.8-1.8S8 5.4 9 5.4s1.8.8 1.8 1.8S10 9 9 9z"/></symbol><symbol viewBox="0 0 18 18" id="print"><path d="M17.9 14.2c0 .2-.2.3-.3.3h-2.4v1.7c0 .6-.5 1-1 1H3.8c-.6 0-1-.5-1-1v-1.7H.3c-.2 0-.3-.2-.3-.3V9.8c0-1.1.9-2.1 2.1-2.1h.7V1.8c0-.6.5-1 1-1H11c.6 0 1.4.3 1.8.7l1.6 1.6c.4.4.7 1.2.7 1.8v2.8h.7c1.1 0 2.1.9 2.1 2.1v4.4zm-4.1-5.1V4.9H12c-.6 0-1-.5-1-1V2.2H4.1v6.9h9.7zm0 6.9v-2.8H4.1V16h9.7zm2-6.9c-.4 0-.7.3-.7.7s.3.7.7.7.7-.3.7-.7-.3-.7-.7-.7z"/></symbol><symbol viewBox="0 0 18 18" aria-labelledby="barecycle-title" id="recycle"><title id="barecycle-title">Recycle</title><path d="M3.1 11.8c-.6 0-1.1-.2-1.6-.4s-.7-.6-.9-.9c-.1-.2-.1-.3-.2-.4v-.5c0-.3 0-.6.1-.8s.2-.5.2-.7c.1-.2.2-.3.3-.4l.2-.2L0 6.8l4.2-.2 2 3.7-1.3-.6-.2.2c-.1 0-.1.1-.2.2l-.3.3c-.1.1-.2.2-.2.3-.1.2-.2.2-.1.4 0 .2.1.3.2.4.2.1.2.2.3.2l-1.3.1zm12 .5c.4 0 .8-.1 1.1-.2.3-.2.7-.3.9-.6l.6-.6c.1-.2.2-.2.2-.3-.1.2-.2.5-.3.7-.1.2-.2.5-.5.8-.1.2-.2.4-.2.5-.1.2-.2.4-.3.7-.2.6-.5 1-.7 1.3-.2.3-.3.7-.6 1-.2.3-.4.6-.7.7-.2.2-.4.2-.7.2h-2.1V18l-2.2-3.5L12 11v1.4c2.1-.1 3.1-.1 3.1-.1zM7 0h2.4c1.1 0 2 0 2.5.1.6.1.9.2 1.1.5 0 .1.1.2.2.3.1.2.2.4.3.7.2.2.2.4.3.6.1.2.2.2.2.3l1.3-.8-1.7 3.9-4.4-.3 1.2-.7-1.5-2.7c-.2-.4-.5-.7-.8-1-.3-.2-.6-.4-.9-.5-.3-.1-.5-.2-.8-.2-.1 0-.3-.1-.4-.1.3 0 .6-.1 1-.1zM1.5 11.8c-.5-.3-.8-.5-.9-.8.1.1.2.2.2.4.1.2.2.4.4.7s.3.7.6 1c.2.3.3.6.4.7.1.1.1.2.1.2.2.3.2.6.4.8.2.2.2.5.4.7.2.2.3.5.5.7.2.2.3.2.5.2l4.6-.1-.1-4.5c-2.8 0-4.6.1-5.7.1-.5.1-1 0-1.4-.1zm13.2-.2c-.2-.3-.7-1.1-1.4-2.1-.7-1.1-1.1-1.7-1.2-1.9l3.7-2.2c0 .1.1.2.2.5.2.2.3.6.5.9.4.7.7 1.3.9 1.7.2.3.3.7.4.7.1.1.1.2.1.4s-.1.5-.2.7c0 .1-.1.2-.2.3l-.6.6c-.3.3-.5.4-.9.6-.3.2-.7.2-1.1.2.1.1 0-.1-.2-.4zM6.1 6.7l-3.7-2c0-.1.2-.3.5-.8.1-.1.3-.4.5-.8s.4-.7.7-1.1c.2-.3.3-.6.5-.7s.2-.4.2-.5c0-.1.1-.2.2-.3s.4-.2.7-.2h.5c.2 0 .5.1.7.2.3.2.7.3.9.6.3.2.6.6.7 1l.1.1c.2 0 .3.1.4.3L6.1 6.7z"/></symbol><symbol viewBox="0 0 18 18" aria-labelledby="bbrefresh-title" id="refresh"><title id="bbrefresh-title">Refresh</title><path d="M13.6 10.7h-.3c-.7 1.7-2.3 2.9-4.2 2.9-1.5 0-2.9-.8-3.7-1.9l2.3-.6-5-2.7L0 13.1l2.5-.7c1.2 2.3 3.7 3.8 6.5 3.8s5.6-2 6.8-4.4l-2.2-1.1zM4.4 7.4h.3C5.3 5.7 7 4.5 8.9 4.5c1.5 0 2.9.8 3.7 1.9l-2.3.6 5 2.7L18 5l-2.5.7C14.3 3.4 11.8 1.8 9 1.8s-5.6 2-6.8 4.4l2.2 1.2z"/></symbol><symbol viewBox="0 0 1024 1024" aria-labelledby="bcrepeat-title" id="repeat"><title id="bcrepeat-title">Repeat</title><path d="M1024 384H640l143.53-143.53C711 167.944 614.57 128 512 128s-199 39.944-271.53 112.47C167.944 313 128 409.43 128 512s39.944 199 112.47 271.53C313 856.056 409.43 896 512 896s199-39.944 271.528-112.472c6.056-6.054 11.86-12.292 17.456-18.668l96.32 84.282C803.458 956.308 665.64 1024 512 1024 229.23 1024 0 794.77 0 512S229.23 0 512 0c141.386 0 269.368 57.326 362.016 149.984L1024 0v384z"/></symbol><symbol viewBox="0 0 18 18" aria-labelledby="bdrewards-title" id="rewards"><title id="bdrewards-title">Rewards</title><path d="M0 6.3l5.4 5L3.1 18 9 13.5l5.8 4.5-2.2-6.8 5.4-5h-6.8L9 0 6.8 6.3H0z"/></symbol><symbol viewBox="0 0 18 18" aria-labelledby="bescheduled-title" id="scheduled"><title id="bescheduled-title">Scheduled</title><g fill="#2e6f03"><path d="M9 0C4 0 0 4 0 9s4 9 9 9 9-4 9-9-4-9-9-9zm0 17c-4.4 0-8-3.6-8-8s3.6-8 8-8 8 3.6 8 8-3.6 8-8 8z"/><path d="M13.6 12.1L9.5 8.8V2.6H8.3v6.6L13 13z"/></g></symbol><symbol viewBox="0 0 18 18" aria-labelledby="bfsearch-title" id="search"><title id="bfsearch-title">Search</title><path d="M6.6 1.8c2.8 0 5 2.3 5 5 0 2.8-2.3 5-5 5-2.8 0-5-2.3-5-5 .1-2.9 2.2-5 5-5zm0 11.6c1.4 0 2.7-.4 3.7-1.1 0 0 0 .1.1.1l5.2 5.2c.3.3.6.3 1 .3.3 0 .7-.2 1-.3.5-.5.5-1.3 0-1.8l-5.2-5.2-.1-.1c.7-1 1.1-2.4 1.1-3.7 0-3.8-3-6.8-6.7-6.8S0 3.1 0 6.7c-.1 3.8 2.9 6.7 6.6 6.7z"/></symbol><symbol viewBox="0 0 18 18" id="security"><path d="M3.9 4.7V8h-.8v10h11.8V8h-.8V4.6C14.3 2.1 11.3 0 9 0S3.7 2.3 3.9 4.7zm1.5.4c.2-1.4.8-3.6 3.6-3.6s3.5 2.3 3.6 3.2v3.4H5.4v-3zM11 16.5H7l1.2-3.2c-.7-.3-1.2-1-1.2-1.8 0-1.1.9-2 2-2s2 .9 2 2c0 .8-.5 1.5-1.2 1.8l1.2 3.2z"/></symbol><symbol viewBox="0 0 18 18" aria-labelledby="bhsettings-title" id="settings"><title id="bhsettings-title">Settings</title><path d="M15.9 10.9l2-.7c.1-.4.1-.8.1-1.2 0-.5 0-.9-.1-1.3L15.8 7c-.6-.2-.8-.8-.6-1.4l1-2c-.5-.7-1.1-1.3-1.8-1.8l-2.1 1c-.5.2-1.2 0-1.4-.6L10.1.1C9.7.1 9.4 0 9 0c-.5 0-.9 0-1.4.1l-.7 2.1c-.2.6-.8.9-1.4.6l-2-.9c-.7.5-1.3 1.1-1.8 1.8l.9 1.9c.3.5 0 1.2-.6 1.4l-1.9.7C0 8.1 0 8.6 0 9s0 .9.1 1.3l2.1.7c.6.2.8.8.6 1.4l-1 2c.5.7 1.1 1.3 1.8 1.8l2.1-1c.5-.2 1.2 0 1.4.6l.8 2.2c.4-.1.7 0 1.1 0 .5 0 .9 0 1.4-.1l.7-2.1c.2-.6.8-.8 1.4-.6l2 .9c.7-.5 1.3-1.1 1.8-1.8l-.9-1.9c-.3-.7-.1-1.3.5-1.5zm-7.1 1c-1.7 0-3.1-1.3-3.1-3.1s1.4-3.1 3.1-3.1 3.1 1.4 3.1 3.1c0 1.8-1.4 3.1-3.1 3.1z"/></symbol><symbol viewBox="0 0 18 18" aria-labelledby="bishow-title" id="show"><title id="bishow-title">Show</title><path d="M0 17.3h18v-3.2H0v3.2zM11.6 7V.7H6.5V7H1.2L9 12.9 16.8 7h-5.2z"/></symbol><symbol viewBox="0 0 18 18" aria-labelledby="bjsmall-loader-title" id="small-loader"><title id="bjsmall-loader-title">In process</title><path fill="#ccc" d="M13.43 1.17l-1.74 3a5.5 5.5 0 1 1-5.4 0l-1.77-3a9 9 0 1 0 8.91 0z"/></symbol><symbol viewBox="0 0 18 18" aria-labelledby="bksort-title" id="sort"><title id="bksort-title">Sort</title><path d="M9 15.6L1 4.4h16z"/></symbol><symbol viewBox="0 0 18 18" aria-labelledby="blsuccess-title" id="success"><title id="blsuccess-title">Success</title><path fill="#2e6f03" d="M3 7.3l4.2 3.8L15.1 0s1.7-.1 2.4.7c.7.9.5 2.8.5 2.8L7.3 18 0 10.8S-.2 8.9.6 8 3 7.3 3 7.3z"/></symbol><symbol viewBox="0 0 18 18" aria-labelledby="bmtext-mobile-alerts-title" id="text-mobile-alerts"><title id="bmtext-mobile-alerts-title">Text and mobile alerts</title><path d="M11.6 1.1C7 .1 2 1.9.5 5.3c-1 2.4 0 4.9 2.3 6.6-.5 2.8-1.4 5.3-1.4 5.3l5.5-3.7c4.5.8 9.1-1 10.5-4.3 1.6-3.4-1.1-7-5.8-8.1z"/></symbol><symbol viewBox="0 0 18 18" aria-labelledby="bntext-mobile-alerts-outline-title" id="text-mobile-alerts-outline"><title id="bntext-mobile-alerts-outline-title">Text and mobile alerts</title><path d="M11.7 1C7 0 1.9 1.9.4 5.2c-1.1 2.4-.1 5 2.3 6.6-.5 2.8-1.4 5.4-1.4 5.4l5.6-3.8c4.5.8 9.2-1.1 10.7-4.3 1.5-3.4-1.2-7-5.9-8.1zm4 7.9c-1.2 2.4-5.3 3.9-9.1 3.1l-2.8 1.7s.5-1.4.7-2.6c-1.8-1.3-3.3-3-2.3-5.2 1.2-2.6 5.1-4 9.1-3.2 4 .9 5.6 3.7 4.4 6.2z"/></symbol><symbol viewBox="0 0 18 18" aria-labelledby="botransfer-money-title" id="transfer-money"><title id="botransfer-money-title">Transfer Money</title><path d="M.1 3.5v3.4h11.6v2.3l6.2-3.7-6.2-4.3v2.3H.1zM18 11.1H6.2V8.8L0 13.1l6.2 3.7v-2.3h11.6v-3.4h.2z"/></symbol><symbol viewBox="0 0 18 18" aria-labelledby="bpturbo-tax-title" id="turbo-tax"><title id="bpturbo-tax-title">TurboTax</title><path d="M.5 9A8.5 8.5 0 1 0 9 .5 8.52 8.52 0 0 0 .5 9" fill="#d52b1e"/><path d="M16.12 5.92a10.68 10.68 0 0 0-1.7-2.55 26.06 26.06 0 0 0-6.91 7.54A11.3 11.3 0 0 0 4.22 7.3L2.52 9a18.86 18.86 0 0 1 5.1 5.74 30.73 30.73 0 0 1 8.5-8.82" fill="#fff"/></symbol></svg>