<svg xmlns="http://www.w3.org/2000/svg" viewBox="0 0 18 18">
  <path d="M9.8 14.6H8.3v-2h1.5v2zM6.1 6.1c.1-.4.3-.8.6-1.1.3-.3.6-.5 1-.7.4-.2.8-.2 1.3-.2.6 0 1.1.1 1.5.3.4.2.7.4 1 .7.3.3.4.5.5.8.1.3.2.6.2.8 0 .4-.1.8-.2 1.1s-.2.5-.4.7l-.5.5c-.2.1-.4.3-.5.4-.2.1-.3.3-.5.5-.1.2-.2.4-.3.7v.5H8.2v-.6c0-.4.1-.7.2-1 .1-.3.2-.5.3-.7l.5-.5c.2-.1.3-.3.5-.4.1-.1.2-.3.3-.4s.1-.4.1-.6c0-.4-.1-.7-.3-.9-.1-.3-.4-.4-.7-.4-.2 0-.4 0-.6.1l-.5.5c-.1.1-.1.3-.2.5 0 .2-.1.2-.1.4H5.9c0-.5 0-.6.2-1z"/>
  <path d="M9 0C4 0 0 4 0 9s4 9 9 9 9-4 9-9-4-9-9-9zm0 17.1C4.5 17.1.9 13.5.9 9S4.5.9 9 .9s8.1 3.6 8.1 8.1-3.6 8.1-8.1 8.1z"/>
</svg>
