<svg xmlns="http://www.w3.org/2000/svg" viewBox="0 0 18 18">
  <path d="M3.1 11.8c-.6 0-1.1-.2-1.6-.4s-.7-.6-.9-.9c-.1-.2-.1-.3-.2-.4v-.5c0-.3 0-.6.1-.8s.2-.5.2-.7c.1-.2.2-.3.3-.4l.2-.2L0 6.8l4.2-.2 2 3.7-1.3-.6-.2.2c-.1 0-.1.1-.2.2l-.3.3c-.1.1-.2.2-.2.3-.1.2-.2.2-.1.4 0 .2.1.3.2.4.2.1.2.2.3.2l-1.3.1zm12 .5c.4 0 .8-.1 1.1-.2.3-.2.7-.3.9-.6l.6-.6c.1-.2.2-.2.2-.3-.1.2-.2.5-.3.7-.1.2-.2.5-.5.8-.1.2-.2.4-.2.5-.1.2-.2.4-.3.7-.2.6-.5 1-.7 1.3-.2.3-.3.7-.6 1-.2.3-.4.6-.7.7-.2.2-.4.2-.7.2h-2.1V18l-2.2-3.5L12 11v1.4c2.1-.1 3.1-.1 3.1-.1zM7 0h2.4c1.1 0 2 0 2.5.1.6.1.9.2 1.1.5 0 .1.1.2.2.3.1.2.2.4.3.7.2.2.2.4.3.6.1.2.2.2.2.3l1.3-.8-1.7 3.9-4.4-.3 1.2-.7-1.5-2.7c-.2-.4-.5-.7-.8-1-.3-.2-.6-.4-.9-.5-.3-.1-.5-.2-.8-.2-.1 0-.3-.1-.4-.1.3 0 .6-.1 1-.1zM1.5 11.8c-.5-.3-.8-.5-.9-.8.1.1.2.2.2.4.1.2.2.4.4.7s.3.7.6 1c.2.3.3.6.4.7.1.1.1.2.1.2.2.3.2.6.4.8.2.2.2.5.4.7.2.2.3.5.5.7.2.2.3.2.5.2l4.6-.1-.1-4.5c-2.8 0-4.6.1-5.7.1-.5.1-1 0-1.4-.1zm13.2-.2c-.2-.3-.7-1.1-1.4-2.1-.7-1.1-1.1-1.7-1.2-1.9l3.7-2.2c0 .1.1.2.2.5.2.2.3.6.5.9.4.7.7 1.3.9 1.7.2.3.3.7.4.7.1.1.1.2.1.4s-.1.5-.2.7c0 .1-.1.2-.2.3l-.6.6c-.3.3-.5.4-.9.6-.3.2-.7.2-1.1.2.1.1 0-.1-.2-.4zM6.1 6.7l-3.7-2c0-.1.2-.3.5-.8.1-.1.3-.4.5-.8s.4-.7.7-1.1c.2-.3.3-.6.5-.7s.2-.4.2-.5c0-.1.1-.2.2-.3s.4-.2.7-.2h.5c.2 0 .5.1.7.2.3.2.7.3.9.6.3.2.6.6.7 1l.1.1c.2 0 .3.1.4.3L6.1 6.7z"/>
</svg>
