<svg xmlns="http://www.w3.org/2000/svg" viewBox="0 0 18 18">
  <path d="M15.9 10.9l2-.7c.1-.4.1-.8.1-1.2 0-.5 0-.9-.1-1.3L15.8 7c-.6-.2-.8-.8-.6-1.4l1-2c-.5-.7-1.1-1.3-1.8-1.8l-2.1 1c-.5.2-1.2 0-1.4-.6L10.1.1C9.7.1 9.4 0 9 0c-.5 0-.9 0-1.4.1l-.7 2.1c-.2.6-.8.9-1.4.6l-2-.9c-.7.5-1.3 1.1-1.8 1.8l.9 1.9c.3.5 0 1.2-.6 1.4l-1.9.7C0 8.1 0 8.6 0 9s0 .9.1 1.3l2.1.7c.6.2.8.8.6 1.4l-1 2c.5.7 1.1 1.3 1.8 1.8l2.1-1c.5-.2 1.2 0 1.4.6l.8 2.2c.4-.1.7 0 1.1 0 .5 0 .9 0 1.4-.1l.7-2.1c.2-.6.8-.8 1.4-.6l2 .9c.7-.5 1.3-1.1 1.8-1.8l-.9-1.9c-.3-.7-.1-1.3.5-1.5zm-7.1 1c-1.7 0-3.1-1.3-3.1-3.1s1.4-3.1 3.1-3.1 3.1 1.4 3.1 3.1c0 1.8-1.4 3.1-3.1 3.1z"/>
</svg>
