<?xml version="1.0" encoding="utf-8"?>
<!-- Generator: Adobe Illustrator 19.2.0, SVG Export Plug-In . SVG Version: 6.00 Build 0)  -->
<svg version="1.1" id="Layer_1" xmlns="http://www.w3.org/2000/svg" xmlns:xlink="http://www.w3.org/1999/xlink" x="0px" y="0px"
	 viewBox="0 0 18 18" enable-background="new 0 0 18 18" xml:space="preserve">
<g>
	<path d="M0,9c0,5,4,9,9,9s9-4,9-9s-4-9-9-9S0,4,0,9z M6.7,4.8L9,7.1l2.3-2.3c0.5-0.5,1.3-0.5,1.8,0.1c0.5,0.5,0.6,1.4,0.1,1.8
		L10.9,9l2.3,2.3c0.5,0.5,0.5,1.3-0.1,1.8c-0.5,0.5-1.4,0.6-1.8,0.1L9,10.9l-2.3,2.3c-0.5,0.5-1.3,0.4-1.8-0.1s-0.6-1.4-0.1-1.8
		L7.1,9L4.8,6.7C4.3,6.2,4.3,5.4,4.9,4.9C5.4,4.3,6.2,4.3,6.7,4.8z"/>
</g>
</svg>
