<?xml version="1.0" encoding="utf-8"?>
<!-- Generator: Adobe Illustrator 19.2.0, SVG Export Plug-In . SVG Version: 6.00 Build 0)  -->
<svg version="1.1" id="Layer_1" xmlns="http://www.w3.org/2000/svg" xmlns:xlink="http://www.w3.org/1999/xlink" x="0px" y="0px"
	 viewBox="0 0 18 18" enable-background="new 0 0 18 18" xml:space="preserve">
<g>
	<path d="M9,0C8.7,0,7.8,0.1,7.8,1.5c0.7,0,1.1,0,1.2,0s0.5,0,1.2,0C10.2,0.1,9.3,0,9,0z"/>
	<path d="M15.3,12.1c-1.2-1-1.7-3.3-1.8-6.3c0-3.1-2.6-3.7-3.3-3.7c-0.3,0-1.1,0-1.2,0l0,0c-0.1,0-0.9,0-1.2,0
		c-0.7,0-3.3,0.5-3.3,3.7c-0.1,3-0.6,5.3-1.8,6.3s-2,1.3-2,2.1s1.1,1.7,3.3,1.7c2.1,0,4.8,0,5,0l0,0c0.2,0,2.8,0,5,0
		s3.3-0.8,3.3-1.7C17.3,13.4,16.6,13.1,15.3,12.1z"/>
	<path d="M9,16.5H7.2c0,0,0,1.5,1.8,1.5s1.8-1.5,1.8-1.5H9z"/>
</g>
</svg>
