<?xml version="1.0" encoding="utf-8"?>
<!-- Generator: Adobe Illustrator 19.2.0, SVG Export Plug-In . SVG Version: 6.00 Build 0)  -->
<svg version="1.1" id="Layer_1" xmlns="http://www.w3.org/2000/svg" xmlns:xlink="http://www.w3.org/1999/xlink" x="0px" y="0px"
	 viewBox="0 0 18 18" enable-background="new 0 0 18 18" xml:space="preserve">
<g>
	<path d="M13.6,10.7h-0.3c-0.7,1.7-2.3,2.9-4.2,2.9c-1.5,0-2.9-0.8-3.7-1.9l2.3-0.6l-5-2.7L0,13.1l2.5-0.7c1.2,2.3,3.7,3.8,6.5,3.8
		s5.6-2,6.8-4.4L13.6,10.7z M4.4,7.4h0.3C5.3,5.7,7,4.5,8.9,4.5c1.5,0,2.9,0.8,3.7,1.9L10.3,7l5,2.7L18,5l-2.5,0.7
		c-1.2-2.3-3.7-3.9-6.5-3.9s-5.6,2-6.8,4.4L4.4,7.4z"/>
</g>
</svg>
