<?xml version="1.0" encoding="utf-8"?>
<!-- Generator: Adobe Illustrator 19.2.0, SVG Export Plug-In . SVG Version: 6.00 Build 0)  -->
<svg version="1.1" id="Layer_1" xmlns="http://www.w3.org/2000/svg" xmlns:xlink="http://www.w3.org/1999/xlink" x="0px" y="0px"
	 viewBox="0 0 18 18" enable-background="new 0 0 18 18" xml:space="preserve">
<path d="M11.7,1C7,0,1.9,1.9,0.4,5.2c-1.1,2.4-0.1,5,2.3,6.6c-0.5,2.8-1.4,5.4-1.4,5.4l5.6-3.8c4.5,0.8,9.2-1.1,10.7-4.3
	C19.1,5.7,16.4,2.1,11.7,1z M15.7,8.9c-1.2,2.4-5.3,3.9-9.1,3.1l-2.8,1.7c0,0,0.5-1.4,0.7-2.6c-1.8-1.3-3.3-3-2.3-5.2
	c1.2-2.6,5.1-4,9.1-3.2C15.3,3.6,16.9,6.4,15.7,8.9z"/>
</svg>
