<svg xmlns="http://www.w3.org/2000/svg" viewBox="0 0 18 18">
  <path d="M9 0C4 0 0 4 0 9s4 9 9 9 9-4 9-9-4-9-9-9zm2.8 11.7c-.1.3-.3.6-.6.9-.2.2-.6.4-.9.6-.1 0-.3.1-.4.1v1.3s0 .4-.4.4h-.9s-.5 0-.5-.4v-1.3c-.1 0-.1 0-.2-.1-.4-.1-.7-.3-1-.5s-.5-.6-.7-.9c-.1-.5-.2-.9-.2-1.4h1.5c0 .3 0 .5.1.7s.2.4.3.5c.1.1.3.2.5.3s.4.1.6.1h.4c.2 0 .3-.1.4-.2.1-.1.3-.2.3-.3.1-.1.1-.3.1-.5s-.1-.4-.2-.6c-.1-.1-.3-.3-.5-.4.1-.1-.1-.2-.4-.3-.2-.1-.5-.1-.7-.2-.3-.1-.5-.2-.8-.3s-.5-.3-.7-.5c-.2-.1-.3-.4-.4-.6-.1-.3-.2-.6-.2-1s.1-.8.2-1.1c.2-.3.4-.6.6-.8.3-.3.5-.4.9-.5h.1V3.3s0-.4.5-.4h.9s.4 0 .4.4v1.3h.1c.3.1.6.3.9.5.3.2.5.5.6.8.2.3.2.8.2 1.2h-1.5c0-.3-.1-.5-.1-.6-.1 0-.2-.2-.3-.3-.1-.1-.3-.1-.4-.2H8.5c-.2 0-.3.1-.4.2-.1.1-.2.2-.2.3-.1.1-.1.2-.1.4s0 .3.1.4c0 .1.1.2.3.3l.6.3c.3.1.6.2 1.1.3.1 0 .3.1.5.2s.5.2.7.4.4.4.6.7c.2.3.3.7.3 1.2 0 .3-.1.7-.2 1z"/>
</svg>
