<svg xmlns="http://www.w3.org/2000/svg" viewBox="0 0 18 18">
  <path d="M11.7.4C7-1.1 1.9 1.5.4 6.3c-1.5 4.7 1.1 9.8 5.9 11.3 4.7 1.5 9.8-1.1 11.3-5.9 1.5-4.8-1.1-9.8-5.9-11.3zm-1.4 14.9H8v-2.4h2.3v2.4zm2.9-7.9c-.1.4-.3.7-.5.9-.2.3-.4.5-.7.6-.3.1-.5.4-.8.6-.3.2-.4.4-.6.6-.2.2-.3.5-.3.9v.6H8v-.8c0-.5.1-.9.3-1.2.2-.3.3-.6.5-.8l.6-.6c.2-.2.4-.3.6-.5.2-.2.3-.4.5-.6.1-.2.2-.5.2-.8 0-.5-.1-.9-.4-1.2-.3-.3-.6-.4-1.1-.4-.3 0-.6.1-.8.2-.2.1-.4.3-.5.5-.1.2-.2.4-.3.7-.1.3-.1.6-.1.9H5c0-.6.1-1.2.3-1.7.2-.5.5-1 .8-1.3.4-.4.8-.7 1.3-.9s1.1-.3 1.7-.3c.8 0 1.5.1 2 .3.5.2 1 .5 1.3.8.3.3.6.7.7 1.1.1.4.2.7.2 1.1.1.5 0 1-.1 1.3z"/>
</svg>
