<?xml version="1.0" encoding="utf-8"?>
<!-- Generator: Adobe Illustrator 19.2.0, SVG Export Plug-In . SVG Version: 6.00 Build 0)  -->
<svg version="1.1" id="Layer_1" xmlns="http://www.w3.org/2000/svg" xmlns:xlink="http://www.w3.org/1999/xlink" x="0px" y="0px"
	 viewBox="0 0 18 18" enable-background="new 0 0 18 18" xml:space="preserve">
<path fill="#c90202" d="M17.6,14.7L10.7,1.4C10.2,0.5,9.6,0,9,0S7.8,0.5,7.3,1.4L0.4,14.7c-0.5,1-0.5,1.8-0.2,2.4S1.3,18,2.3,18h13.4
	c1,0,1.7-0.3,2.1-0.9C18.1,16.5,18.1,15.6,17.6,14.7z M9,16c-0.6,0-1-0.4-1-1s0.4-1,1-1s1,0.4,1,1S9.6,16,9,16z M9.7,11.7H8.3L8,5h2
	L9.7,11.7z"/>
</svg>
